<svg width="56" height="45" viewBox="0 0 56 45" fill="none" xmlns="http://www.w3.org/2000/svg">
<path d="M31.7468 4.30265C34.2446 5.8816 35.2115 9.7895 34.2446 14.2105C34.0029 15.1974 33.1568 17.8421 32.3511 20.0527L30.9007 24.1579L28.6446 23.8816C22.964 23.1711 15.6317 20.7632 11.482 18.2369C8.98418 16.6974 8.74245 17.1711 10.4748 20.5263C11.6835 22.8948 14.423 25.9342 17.3237 28.1448L18.7338 29.25L15.954 28.9737C14.4633 28.8553 12.2072 28.4211 10.9986 27.9869L8.82303 27.2763L10.0719 28.8158C13.1741 32.6448 18.5324 35.3684 25.1799 36.5527L26.7914 36.829L23.9712 38.1711L21.1511 39.5132L27.3957 39.3553C35.695 39.1184 38.918 38.0921 44.1957 33.9869C47.3784 31.5395 51.3266 25.1842 52.9784 19.7763L53.2604 18.829L51.1252 20.0132C48.7885 21.2763 45.2029 22.6974 44.9612 22.4605C44.8806 22.3816 45.1223 21.0395 45.5252 19.5395C46.5324 15.829 46.5324 10.9737 45.5655 8.84212C44.1151 5.72371 40.4489 4.06581 34.2849 3.71055L30.4173 3.47371L31.7468 4.30265Z" fill="white"/>
</svg>
